<svg width="22" height="22" viewBox="0 0 22 22" fill="none" xmlns="http://www.w3.org/2000/svg">
<path d="M6.875 7.5625V6.1875C6.875 5.09348 7.3096 4.04427 8.08318 3.27068C8.85677 2.4971 9.90598 2.0625 11 2.0625V2.0625C12.094 2.0625 13.1432 2.4971 13.9168 3.27068C14.6904 4.04427 15.125 5.09348 15.125 6.1875V7.5625M3.4375 7.5625C3.25516 7.5625 3.0803 7.63493 2.95136 7.76386C2.82243 7.8928 2.75 8.06766 2.75 8.25V17.5312C2.75 18.8306 3.85688 19.9375 5.15625 19.9375H16.8438C18.1431 19.9375 19.25 18.8843 19.25 17.585V8.25C19.25 8.06766 19.1776 7.8928 19.0486 7.76386C18.9197 7.63493 18.7448 7.5625 18.5625 7.5625H3.4375Z" stroke="#3A3A3A" stroke-linecap="round" stroke-linejoin="round"/>
</svg>
