<svg width="181" height="29" viewBox="0 0 181 29" fill="none" xmlns="http://www.w3.org/2000/svg">
<path d="M3.46 22H0.4V0.64L14.92 15.85V1.99H17.98V23.23L3.46 8.02V22ZM31.4828 10.84V9.37H34.4228V22H31.4828V20.68C30.5028 21.82 29.2428 22.39 27.7028 22.39C25.8428 22.39 24.3528 21.73 23.2328 20.41C22.1328 19.09 21.5828 17.51 21.5828 15.67C21.5828 13.67 22.1728 12.07 23.3528 10.87C24.5528 9.65 26.0128 9.04 27.7328 9.04C29.3128 9.04 30.5628 9.64 31.4828 10.84ZM28.0928 11.68C27.0528 11.68 26.2028 12.07 25.5428 12.85C24.9028 13.63 24.5828 14.59 24.5828 15.73C24.5828 16.85 24.9028 17.8 25.5428 18.58C26.2028 19.36 27.0528 19.75 28.0928 19.75C29.0928 19.75 29.9328 19.4 30.6128 18.7C31.3128 18 31.6628 17.02 31.6628 15.76C31.6628 14.46 31.3128 13.46 30.6128 12.76C29.9328 12.04 29.0928 11.68 28.0928 11.68ZM41.091 20.53V28.87H38.151V9.37H41.091V10.75C42.051 9.61 43.301 9.04 44.841 9.04C46.561 9.04 48.011 9.65 49.191 10.87C50.391 12.07 50.991 13.65 50.991 15.61C50.991 17.63 50.371 19.27 49.131 20.53C47.891 21.77 46.471 22.39 44.871 22.39C43.371 22.39 42.111 21.77 41.091 20.53ZM44.481 11.68C43.481 11.68 42.631 12.04 41.931 12.76C41.251 13.46 40.911 14.46 40.911 15.76C40.911 17.02 41.251 18 41.931 18.7C42.631 19.4 43.481 19.75 44.481 19.75C45.521 19.75 46.361 19.36 47.001 18.58C47.661 17.8 47.991 16.85 47.991 15.73C47.991 14.59 47.661 13.63 47.001 12.85C46.361 12.07 45.521 11.68 44.481 11.68ZM55.3192 10.93C56.6192 9.67 58.2292 9.04 60.1492 9.04C62.0692 9.04 63.6692 9.67 64.9492 10.93C66.2492 12.17 66.8992 13.76 66.8992 15.7C66.8992 17.62 66.2492 19.22 64.9492 20.5C63.6692 21.76 62.0692 22.39 60.1492 22.39C58.2292 22.39 56.6192 21.76 55.3192 20.5C54.0392 19.22 53.3992 17.62 53.3992 15.7C53.3992 13.76 54.0392 12.17 55.3192 10.93ZM57.4192 18.67C58.0992 19.39 59.0092 19.75 60.1492 19.75C61.2892 19.75 62.1992 19.39 62.8792 18.67C63.5592 17.93 63.8992 16.95 63.8992 15.73C63.8992 14.39 63.5292 13.38 62.7892 12.7C62.0692 12.02 61.1892 11.68 60.1492 11.68C59.1092 11.68 58.2192 12.02 57.4792 12.7C56.7592 13.38 56.3992 14.39 56.3992 15.73C56.3992 16.95 56.7392 17.93 57.4192 18.67ZM69.9674 0.129999H72.9074V22H69.9674V0.129999ZM85.4678 17.74L87.9278 19.12C87.3678 20.12 86.6578 20.89 85.7978 21.43C84.8178 22.07 83.5778 22.39 82.0778 22.39C80.3178 22.39 78.8978 21.85 77.8178 20.77C76.5778 19.53 75.9578 17.92 75.9578 15.94C75.9578 13.86 76.6278 12.13 77.9678 10.75C79.1078 9.61 80.5178 9.04 82.1978 9.04C83.8378 9.04 85.1878 9.59 86.2478 10.69C87.4278 11.91 88.0178 13.69 88.0178 16.03V16.39H78.9578C79.0378 17.45 79.3978 18.3 80.0378 18.94C80.5778 19.48 81.3278 19.75 82.2878 19.75C83.0678 19.75 83.7378 19.54 84.2978 19.12C84.7578 18.76 85.1478 18.3 85.4678 17.74ZM79.1678 13.99H85.0178C84.8978 13.29 84.5978 12.72 84.1178 12.28C83.5978 11.8 82.9378 11.56 82.1378 11.56C81.2978 11.56 80.6078 11.83 80.0678 12.37C79.6278 12.77 79.3278 13.31 79.1678 13.99ZM92.3505 10.93C93.6505 9.67 95.2605 9.04 97.1805 9.04C99.1005 9.04 100.7 9.67 101.98 10.93C103.28 12.17 103.93 13.76 103.93 15.7C103.93 17.62 103.28 19.22 101.98 20.5C100.7 21.76 99.1005 22.39 97.1805 22.39C95.2605 22.39 93.6505 21.76 92.3505 20.5C91.0705 19.22 90.4305 17.62 90.4305 15.7C90.4305 13.76 91.0705 12.17 92.3505 10.93ZM94.4505 18.67C95.1305 19.39 96.0405 19.75 97.1805 19.75C98.3205 19.75 99.2305 19.39 99.9105 18.67C100.59 17.93 100.93 16.95 100.93 15.73C100.93 14.39 100.56 13.38 99.8205 12.7C99.1005 12.02 98.2205 11.68 97.1805 11.68C96.1405 11.68 95.2505 12.02 94.5105 12.7C93.7905 13.38 93.4305 14.39 93.4305 15.73C93.4305 16.95 93.7705 17.93 94.4505 18.67ZM106.969 22V9.37H109.909V10.54C110.809 9.54 111.949 9.04 113.329 9.04C114.989 9.04 116.229 9.61 117.049 10.75C117.569 11.49 117.829 12.66 117.829 14.26V22H114.889V14.98C114.889 14.22 114.829 13.6 114.709 13.12C114.589 12.64 114.399 12.31 114.139 12.13C113.879 11.93 113.639 11.81 113.419 11.77C113.219 11.71 112.939 11.68 112.579 11.68C112.159 11.68 111.819 11.72 111.559 11.8C111.319 11.86 111.049 12.02 110.749 12.28C110.469 12.52 110.259 12.95 110.119 13.57C109.979 14.17 109.909 14.96 109.909 15.94V22H106.969ZM136.919 3.07V6.67C135.279 5.19 133.469 4.45 131.489 4.45C129.329 4.45 127.569 5.17 126.209 6.61C124.869 8.03 124.199 9.85 124.199 12.07C124.199 14.21 124.889 16 126.269 17.44C127.649 18.86 129.399 19.57 131.519 19.57C133.499 19.57 135.299 18.8 136.919 17.26V20.89C135.239 21.89 133.409 22.39 131.429 22.39C128.649 22.39 126.289 21.47 124.349 19.63C122.209 17.63 121.139 15.11 121.139 12.07C121.139 8.87 122.209 6.26 124.349 4.24C126.189 2.5 128.599 1.63 131.579 1.63C133.639 1.63 135.419 2.11 136.919 3.07ZM149.403 10.84V9.37H152.343V22H149.403V20.68C148.423 21.82 147.163 22.39 145.623 22.39C143.763 22.39 142.273 21.73 141.153 20.41C140.053 19.09 139.503 17.51 139.503 15.67C139.503 13.67 140.093 12.07 141.273 10.87C142.473 9.65 143.933 9.04 145.653 9.04C147.233 9.04 148.483 9.64 149.403 10.84ZM146.013 11.68C144.973 11.68 144.123 12.07 143.463 12.85C142.823 13.63 142.503 14.59 142.503 15.73C142.503 16.85 142.823 17.8 143.463 18.58C144.123 19.36 144.973 19.75 146.013 19.75C147.013 19.75 147.853 19.4 148.533 18.7C149.233 18 149.583 17.02 149.583 15.76C149.583 14.46 149.233 13.46 148.533 12.76C147.853 12.04 147.013 11.68 146.013 11.68ZM156.071 0.129999H159.011V13.6L163.121 9.37H167.021L161.591 14.62L167.411 22H163.691L159.551 16.6L159.011 17.14V22H156.071V0.129999ZM177.87 17.74L180.33 19.12C179.77 20.12 179.06 20.89 178.2 21.43C177.22 22.07 175.98 22.39 174.48 22.39C172.72 22.39 171.3 21.85 170.22 20.77C168.98 19.53 168.36 17.92 168.36 15.94C168.36 13.86 169.03 12.13 170.37 10.75C171.51 9.61 172.92 9.04 174.6 9.04C176.24 9.04 177.59 9.59 178.65 10.69C179.83 11.91 180.42 13.69 180.42 16.03V16.39H171.36C171.44 17.45 171.8 18.3 172.44 18.94C172.98 19.48 173.73 19.75 174.69 19.75C175.47 19.75 176.14 19.54 176.7 19.12C177.16 18.76 177.55 18.3 177.87 17.74ZM171.57 13.99H177.42C177.3 13.29 177 12.72 176.52 12.28C176 11.8 175.34 11.56 174.54 11.56C173.7 11.56 173.01 11.83 172.47 12.37C172.03 12.77 171.73 13.31 171.57 13.99Z" fill="#3A3A3A"/>
</svg>
