<svg width="22" height="22" viewBox="0 0 22 22" fill="none" xmlns="http://www.w3.org/2000/svg">
<path d="M14.6665 1.8335V7.3335H20.1665" stroke="#3A3A3A" stroke-linecap="round" stroke-linejoin="round"/>
<path d="M21.0832 0.916504L14.6665 7.33317" stroke="#3A3A3A" stroke-linecap="round" stroke-linejoin="round"/>
<path d="M20.1668 15.5098V18.2598C20.1678 18.5151 20.1156 18.7678 20.0133 19.0017C19.911 19.2356 19.761 19.4456 19.5729 19.6181C19.3848 19.7907 19.1627 19.9221 18.9208 20.0039C18.679 20.0857 18.4227 20.1161 18.1685 20.0931C15.3477 19.7866 12.6382 18.8227 10.2576 17.2789C8.04282 15.8715 6.16503 13.9938 4.75764 11.7789C3.20846 9.38753 2.24436 6.66484 1.94348 3.83143C1.92057 3.57794 1.95069 3.32246 2.03193 3.08125C2.11317 2.84004 2.24375 2.6184 2.41534 2.43042C2.58694 2.24244 2.7958 2.09225 3.02862 1.98941C3.26144 1.88657 3.51312 1.83334 3.76764 1.8331H6.51764C6.96251 1.82872 7.39378 1.98625 7.73109 2.27633C8.0684 2.56642 8.28871 2.96926 8.35098 3.40976C8.46705 4.28982 8.6823 5.15393 8.99264 5.9856C9.11597 6.31369 9.14267 6.67027 9.06956 7.01307C8.99645 7.35587 8.8266 7.67053 8.58014 7.91976L7.41598 9.08393C8.7209 11.3788 10.6211 13.279 12.916 14.5839L14.0801 13.4198C14.3294 13.1733 14.644 13.0035 14.9868 12.9303C15.3296 12.8572 15.6862 12.8839 16.0143 13.0073C16.846 13.3176 17.7101 13.5329 18.5901 13.6489C19.0354 13.7117 19.4421 13.936 19.7328 14.2791C20.0235 14.6222 20.178 15.0602 20.1668 15.5098Z" stroke="#3A3A3A" stroke-linecap="round" stroke-linejoin="round"/>
</svg>
